<?xml version="1.0" encoding="UTF-8"?>
<svg xmlns="http://www.w3.org/2000/svg" xmlns:xlink="http://www.w3.org/1999/xlink" width="456px" height="456px" viewBox="0 0 456 456" version="1.1">
    <g id="surface1">
        <path style=" stroke:none;fill-rule:evenodd;fill:rgb(98.823529%,99.215686%,98.823529%);fill-opacity:1;" d="M -2.425781 -2.652344 C 149.574219 -2.652344 301.574219 -2.652344 453.574219 -2.652344 C 453.574219 149.347656 453.574219 301.347656 453.574219 453.347656 C 301.574219 453.347656 149.574219 453.347656 -2.425781 453.347656 C -2.425781 301.347656 -2.425781 149.347656 -2.425781 -2.652344 Z M -2.425781 -2.652344 "/>
        <path style=" stroke:none;fill-rule:evenodd;fill:rgb(18.82353%,76.078433%,65.490198%);fill-opacity:1;" d="M 215.871094 23.859375 C 228.910156 22.992188 241.84375 23.875 254.679688 26.511719 C 275.15625 42.082031 294.5625 58.875 312.894531 76.882812 C 317.621094 64.992188 319.238281 52.621094 317.746094 39.765625 C 336.84375 38.210938 355.4375 39.980469 373.53125 45.070312 C 375.148438 75.117188 376.765625 105.164062 378.382812 135.210938 C 395.710938 143.527344 410.265625 155.902344 422.042969 172.324219 C 428.917969 193.226562 422.453125 205.597656 402.636719 209.441406 C 393.457031 205.75 384.5625 201.332031 375.957031 196.1875 C 329.699219 156.183594 283.617188 116.414062 237.703125 76.882812 C 204.605469 105.972656 171.457031 135.136719 138.253906 164.371094 C 117.558594 181.757812 95.726562 196.78125 72.765625 209.441406 C 51.558594 203.65625 45.898438 189.519531 55.789062 167.023438 C 110.769531 121.023438 164.132812 73.304688 215.871094 23.859375 Z M 215.871094 23.859375 "/>
        <path style=" stroke:none;fill-rule:evenodd;fill:rgb(94.509804%,60.392159%,21.176471%);fill-opacity:1;" d="M 230.425781 103.394531 C 249.894531 113.054688 267.679688 126.308594 283.789062 143.164062 C 277.320312 146.699219 270.851562 146.699219 264.382812 143.164062 C 245.699219 120.25 227.914062 120.25 211.019531 143.164062 C 204.019531 147.300781 197.550781 146.417969 191.617188 140.511719 C 206.210938 129.839844 219.144531 117.46875 230.425781 103.394531 Z M 230.425781 103.394531 "/>
        <path style=" stroke:none;fill-rule:evenodd;fill:rgb(18.82353%,76.078433%,65.490198%);fill-opacity:1;" d="M 147.957031 172.324219 C 156.734375 216.203125 160.777344 262.15625 160.085938 310.1875 C 169.484375 331.050781 182.417969 348.726562 198.894531 363.210938 C 201.289062 371.875 202.097656 380.710938 201.320312 389.722656 C 173.78125 390.601562 146.292969 389.71875 118.851562 387.070312 C 105.105469 382.652344 96.210938 372.929688 92.171875 357.90625 C 88.132812 311.851562 88.941406 265.898438 94.597656 220.046875 C 114.003906 205.863281 131.792969 189.953125 147.957031 172.324219 Z M 147.957031 172.324219 "/>
        <path style=" stroke:none;fill-rule:evenodd;fill:rgb(97.254902%,56.470591%,13.725491%);fill-opacity:1;" d="M 317.746094 172.324219 C 341.648438 186.96875 363.480469 204.644531 383.234375 225.347656 C 386.46875 271.300781 386.46875 317.253906 383.234375 363.210938 C 375.289062 375.457031 364.78125 383.414062 351.703125 387.070312 C 325.878906 389.71875 300.007812 390.601562 274.085938 389.722656 C 273.296875 378.972656 274.105469 368.367188 276.511719 357.90625 C 293.40625 345.300781 306.34375 329.394531 315.320312 310.1875 C 317.742188 264.265625 318.550781 218.3125 317.746094 172.324219 Z M 317.746094 172.324219 "/>
        <path style=" stroke:none;fill-rule:evenodd;fill:rgb(13.725491%,15.294118%,18.039216%);fill-opacity:1;" d="M 196.46875 204.140625 C 220.15625 209.257812 226.625 224.28125 215.871094 249.210938 C 208.050781 253.027344 200.773438 252.144531 194.042969 246.558594 C 191.125 232.132812 191.933594 217.992188 196.46875 204.140625 Z M 196.46875 204.140625 "/>
        <path style=" stroke:none;fill-rule:evenodd;fill:rgb(12.54902%,14.117648%,17.254902%);fill-opacity:1;" d="M 254.679688 209.441406 C 282.546875 205.867188 290.632812 218.238281 278.9375 246.558594 C 271.628906 253.171875 264.351562 253.171875 257.105469 246.558594 C 254.699219 234.3125 253.890625 221.9375 254.679688 209.441406 Z M 254.679688 209.441406 "/>
        <path style=" stroke:none;fill-rule:evenodd;fill:rgb(12.156863%,14.117648%,17.254902%);fill-opacity:1;" d="M 181.914062 278.371094 C 199.796875 289.839844 218.390625 300.441406 237.703125 310.1875 C 257.011719 300.441406 275.609375 289.839844 293.488281 278.371094 C 290.695312 314.929688 272.101562 332.605469 237.703125 331.394531 C 220.050781 331.910156 204.691406 325.722656 191.617188 312.835938 C 184.261719 302.777344 181.027344 291.289062 181.914062 278.371094 Z M 181.914062 278.371094 "/>
    </g>
</svg>
